<svg width="16" height="16" viewBox="0 0 16 16" fill="none" xmlns="http://www.w3.org/2000/svg">
<rect width="16" height="16" rx="5" fill="#474427"/>
<g filter="url(#filter0_d)">
<path d="M9.79485 4.8486C9.79485 5.36296 9.59052 5.85626 9.22681 6.21997C8.8631 6.58369 8.3698 6.78802 7.85543 6.78802C7.34107 6.78802 6.84777 6.58369 6.48406 6.21997C6.12035 5.85626 5.91602 5.36296 5.91602 4.8486C5.91602 4.33423 6.12035 3.84093 6.48406 3.47722C6.84777 3.11351 7.34107 2.90918 7.85543 2.90918C8.3698 2.90918 8.8631 3.11351 9.22681 3.47722C9.59052 3.84093 9.79485 4.33423 9.79485 4.8486Z" fill="#F6F97B"/>
<path d="M13.0273 6.14158C13.0273 6.48449 12.8911 6.81336 12.6486 7.05583C12.4061 7.2983 12.0773 7.43453 11.7344 7.43453C11.3914 7.43453 11.0626 7.2983 10.8201 7.05583C10.5776 6.81336 10.4414 6.48449 10.4414 6.14158C10.4414 5.79867 10.5776 5.4698 10.8201 5.22733C11.0626 4.98485 11.3914 4.84863 11.7344 4.84863C12.0773 4.84863 12.4061 4.98485 12.6486 5.22733C12.8911 5.4698 13.0273 5.79867 13.0273 6.14158Z" fill="#F6F97B"/>
<path d="M10.4394 10.6669C10.4394 9.98112 10.1669 9.32339 9.68197 8.83844C9.19702 8.3535 8.53929 8.08105 7.85347 8.08105C7.16765 8.08105 6.50992 8.3535 6.02497 8.83844C5.54002 9.32339 5.26758 9.98112 5.26758 10.6669V12.6064H10.4394V10.6669Z" fill="#F6F97B"/>
<path d="M5.26851 6.14158C5.26851 6.48449 5.13229 6.81336 4.88981 7.05583C4.64734 7.2983 4.31847 7.43453 3.97556 7.43453C3.63265 7.43453 3.30379 7.2983 3.06131 7.05583C2.81884 6.81336 2.68262 6.48449 2.68262 6.14158C2.68262 5.79867 2.81884 5.4698 3.06131 5.22733C3.30379 4.98485 3.63265 4.84863 3.97556 4.84863C4.31847 4.84863 4.64734 4.98485 4.88981 5.22733C5.13229 5.4698 5.26851 5.79867 5.26851 6.14158Z" fill="#F6F97B"/>
<path d="M11.7339 12.6063V10.6668C11.7348 10.0096 11.5679 9.36292 11.249 8.78819C11.5356 8.71484 11.8352 8.70792 12.1249 8.76797C12.4146 8.82801 12.6867 8.95342 12.9206 9.13464C13.1544 9.31586 13.3438 9.54809 13.4743 9.81363C13.6047 10.0792 13.6728 10.371 13.6733 10.6668V12.6063H11.7339Z" fill="#F6F97B"/>
<path d="M4.46041 8.78815C4.14153 9.36289 3.97465 10.0095 3.97555 10.6668V12.6062H2.03613V10.6668C2.03601 10.3707 2.10367 10.0786 2.23392 9.81271C2.36417 9.54685 2.55357 9.31433 2.78758 9.13299C3.0216 8.95164 3.29403 8.82627 3.58399 8.7665C3.87395 8.70673 4.17375 8.71413 4.46041 8.78815Z" fill="#F6F97B"/>
</g>
<defs>
<filter id="filter0_d" x="2.03613" y="2.90918" width="13.1372" height="11.1972" filterUnits="userSpaceOnUse" color-interpolation-filters="sRGB">
<feFlood flood-opacity="0" result="BackgroundImageFix"/>
<feColorMatrix in="SourceAlpha" type="matrix" values="0 0 0 0 0 0 0 0 0 0 0 0 0 0 0 0 0 0 127 0"/>
<feOffset dx="1" dy="1"/>
<feGaussianBlur stdDeviation="0.25"/>
<feColorMatrix type="matrix" values="0 0 0 0 0 0 0 0 0 0 0 0 0 0 0 0 0 0 0.25 0"/>
<feBlend mode="normal" in2="BackgroundImageFix" result="effect1_dropShadow"/>
<feBlend mode="normal" in="SourceGraphic" in2="effect1_dropShadow" result="shape"/>
</filter>
</defs>
</svg>
